<svg data-v-423bf9ae="" xmlns="http://www.w3.org/2000/svg" viewBox="0 0 397 91" class="iconLeft"><!----><!----><!----><g data-v-423bf9ae="" id="4ea9e94f-3b59-43b0-8bd7-6f91db22e355" fill="white" transform="matrix(4.784689009770447,0,0,4.784689009770447,118.64128918271624,4.617225914266804)"><path d="M0.94 12.29L0.94 2.69L4.91 2.69L4.91 2.69Q7.11 2.69 8.31 3.88L8.31 3.88L8.31 3.88Q9.51 5.08 9.51 7.49L9.51 7.49L9.51 7.49Q9.51 9.90 8.31 11.09L8.31 11.09L8.31 11.09Q7.11 12.29 4.91 12.29L4.91 12.29L0.94 12.29ZM2.97 10.57L4.91 10.57L4.91 10.57Q6.15 10.57 6.78 9.82L6.78 9.82L6.78 9.82Q7.42 9.07 7.42 7.70L7.42 7.70L7.42 7.28L7.42 7.28Q7.42 5.91 6.78 5.16L6.78 5.16L6.78 5.16Q6.15 4.41 4.91 4.41L4.91 4.41L2.97 4.41L2.97 10.57ZM11.10 3.91L11.10 2.17L13.02 2.17L13.02 3.91L11.10 3.91ZM11.10 12.29L11.10 4.93L13.02 4.93L13.02 12.29L11.10 12.29ZM17.93 12.46L17.93 12.46Q16.39 12.46 15.52 11.82L15.52 11.82L15.52 11.82Q14.64 11.19 14.64 10.12L14.64 10.12L14.66 9.95L16.52 9.95L16.52 10.05L16.52 10.05Q16.53 10.54 16.96 10.76L16.96 10.76L16.96 10.76Q17.39 10.98 18.00 10.98L18.00 10.98L18.00 10.98Q18.58 10.98 18.98 10.82L18.98 10.82L18.98 10.82Q19.39 10.67 19.39 10.32L19.39 10.32L19.39 10.32Q19.39 9.93 18.98 9.73L18.98 9.73L18.98 9.73Q18.56 9.53 17.68 9.34L17.68 9.34L17.68 9.34Q16.77 9.13 16.20 8.91L16.20 8.91L16.20 8.91Q15.62 8.69 15.20 8.23L15.20 8.23L15.20 8.23Q14.78 7.77 14.78 7L14.78 7L14.78 7Q14.78 5.92 15.69 5.34L15.69 5.34L15.69 5.34Q16.59 4.76 18.02 4.76L18.02 4.76L18.02 4.76Q19.35 4.76 20.22 5.30L20.22 5.30L20.22 5.30Q21.08 5.84 21.08 6.76L21.08 6.76L21.07 7.08L19.21 7.08L19.21 7.06L19.21 7.06Q19.19 6.65 18.86 6.45L18.86 6.45L18.86 6.45Q18.52 6.24 17.95 6.24L17.95 6.24L17.95 6.24Q17.37 6.24 17.04 6.40L17.04 6.40L17.04 6.40Q16.70 6.55 16.70 6.83L16.70 6.83L16.70 6.83Q16.70 7.18 17.09 7.35L17.09 7.35L17.09 7.35Q17.47 7.52 18.33 7.69L18.33 7.69L18.33 7.69Q19.26 7.90 19.85 8.11L19.85 8.11L19.85 8.11Q20.44 8.32 20.87 8.79L20.87 8.79L20.87 8.79Q21.31 9.27 21.31 10.08L21.31 10.08L21.31 10.08Q21.31 12.46 17.93 12.46L17.93 12.46ZM22.78 14.71L22.78 4.93L24.42 4.93L24.54 5.89L24.64 5.89L24.64 5.89Q24.99 5.33 25.58 5.05L25.58 5.05L25.58 5.05Q26.17 4.76 26.88 4.76L26.88 4.76L26.88 4.76Q28.28 4.76 29.05 5.72L29.05 5.72L29.05 5.72Q29.82 6.68 29.82 8.62L29.82 8.62L29.82 8.62Q29.82 10.53 29.04 11.49L29.04 11.49L29.04 11.49Q28.27 12.46 26.98 12.46L26.98 12.46L26.98 12.46Q26.24 12.46 25.67 12.19L25.67 12.19L25.67 12.19Q25.10 11.93 24.78 11.44L24.78 11.44L24.70 11.44L24.70 14.71L22.78 14.71ZM26.26 10.79L26.26 10.79Q27.12 10.79 27.48 10.28L27.48 10.28L27.48 10.28Q27.85 9.77 27.85 8.74L27.85 8.74L27.85 8.48L27.85 8.48Q27.85 7.45 27.48 6.94L27.48 6.94L27.48 6.94Q27.12 6.43 26.26 6.43L26.26 6.43L26.26 6.43Q24.70 6.43 24.70 8.48L24.70 8.48L24.70 8.71L24.70 8.71Q24.70 10.79 26.26 10.79L26.26 10.79ZM33.03 12.46L33.03 12.46Q32.17 12.46 31.46 12.01L31.46 12.01L31.46 12.01Q30.74 11.56 30.74 10.39L30.74 10.39L30.74 10.39Q30.74 8.97 31.91 8.38L31.91 8.38L31.91 8.38Q33.07 7.78 35.20 7.78L35.20 7.78L35.20 7.27L35.20 7.27Q35.20 6.78 34.98 6.51L34.98 6.51L34.98 6.51Q34.76 6.24 34.16 6.24L34.16 6.24L34.16 6.24Q33.52 6.24 33.24 6.44L33.24 6.44L33.24 6.44Q32.97 6.64 32.97 6.90L32.97 6.90L32.97 7.11L31.12 7.11L31.12 7.11Q31.11 7.03 31.11 6.80L31.11 6.80L31.11 6.80Q31.11 5.88 31.93 5.32L31.93 5.32L31.93 5.32Q32.75 4.76 34.10 4.76L34.10 4.76L34.10 4.76Q35.62 4.76 36.37 5.38L36.37 5.38L36.37 5.38Q37.11 5.99 37.11 7.15L37.11 7.15L37.11 10.40L37.11 10.40Q37.11 10.65 37.25 10.77L37.25 10.77L37.25 10.77Q37.39 10.89 37.60 10.89L37.60 10.89L38.00 10.89L38.00 12.24L38.00 12.24Q37.55 12.46 36.89 12.46L36.89 12.46L36.89 12.46Q36.32 12.46 35.93 12.21L35.93 12.21L35.93 12.21Q35.55 11.96 35.41 11.49L35.41 11.49L35.32 11.49L35.32 11.49Q34.92 11.97 34.39 12.21L34.39 12.21L34.39 12.21Q33.87 12.46 33.03 12.46L33.03 12.46ZM33.63 10.95L33.63 10.95Q34.44 10.95 34.82 10.49L34.82 10.49L34.82 10.49Q35.20 10.04 35.20 9.28L35.20 9.28L35.20 9.06L35.20 9.06Q32.69 9.06 32.69 10.18L32.69 10.18L32.69 10.18Q32.69 10.53 32.92 10.74L32.92 10.74L32.92 10.74Q33.15 10.95 33.63 10.95L33.63 10.95ZM41.09 12.46L41.09 12.46Q40.05 12.46 39.61 11.90L39.61 11.90L39.61 11.90Q39.16 11.34 39.16 10.49L39.16 10.49L39.16 6.50L38.28 6.50L38.28 4.93L39.20 4.93L39.52 2.86L41.08 2.86L41.08 4.93L42.35 4.93L42.35 6.50L41.08 6.50L41.08 10.29L41.08 10.29Q41.08 10.89 41.68 10.89L41.68 10.89L42.35 10.89L42.35 12.24L42.35 12.24Q42.11 12.32 41.76 12.39L41.76 12.39L41.76 12.39Q41.40 12.46 41.09 12.46L41.09 12.46ZM46.83 12.46L46.83 12.46Q45.07 12.46 44.19 11.52L44.19 11.52L44.19 11.52Q43.32 10.58 43.32 8.61L43.32 8.61L43.32 8.61Q43.32 6.65 44.19 5.71L44.19 5.71L44.19 5.71Q45.07 4.76 46.83 4.76L46.83 4.76L46.83 4.76Q48.30 4.76 49.17 5.51L49.17 5.51L49.17 5.51Q50.05 6.26 50.05 7.70L50.05 7.70L48.12 7.70L48.12 7.70Q48.12 7.03 47.77 6.66L47.77 6.66L47.77 6.66Q47.42 6.30 46.79 6.30L46.79 6.30L46.79 6.30Q46.00 6.30 45.63 6.85L45.63 6.85L45.63 6.85Q45.26 7.41 45.26 8.50L45.26 8.50L45.26 8.72L45.26 8.72Q45.26 9.81 45.65 10.37L45.65 10.37L45.65 10.37Q46.03 10.92 46.89 10.92L46.89 10.92L46.89 10.92Q47.49 10.92 47.84 10.55L47.84 10.55L47.84 10.55Q48.20 10.18 48.20 9.52L48.20 9.52L50.05 9.52L50.05 9.52Q50.05 10.96 49.18 11.71L49.18 11.71L49.18 11.71Q48.31 12.46 46.83 12.46L46.83 12.46ZM51.56 12.29L51.56 2.17L53.48 2.17L53.48 5.78L53.58 5.78L53.58 5.78Q54.42 4.76 55.73 4.76L55.73 4.76L55.73 4.76Q56.87 4.76 57.52 5.38L57.52 5.38L57.52 5.38Q58.17 5.99 58.17 7.35L58.17 7.35L58.17 12.29L56.25 12.29L56.25 7.76L56.25 7.76Q56.25 7.07 55.93 6.76L55.93 6.76L55.93 6.76Q55.61 6.45 54.98 6.45L54.98 6.45L54.98 6.45Q54.33 6.45 53.91 6.91L53.91 6.91L53.91 6.91Q53.48 7.36 53.48 8.04L53.48 8.04L53.48 12.29L51.56 12.29Z"></path></g><!----><g data-v-423bf9ae="" id="ef7a00c3-b16e-4ff6-b96a-a10421485af7" transform="matrix(1.1575334393937269,0,0,1.1575334393937269,-3.065826146917516,-10.457022510656024)" stroke="none" fill="white"><path d="M92.067 57.525l-.487-1.504a3.925 3.925 0 0 0-4.935-2.528L47.026 66.335a4.201 4.201 0 0 0-.876.404 12.413 12.413 0 0 0-7.027-4.349c-.08-.425-.198-.894-.36-1.391L24.631 17.484c-.667-2.052-2.907-4.229-4.978-4.841L8.625 9.405a3.937 3.937 0 0 0-4.872 2.662l-.445 1.514a3.934 3.934 0 0 0 2.658 4.872l6.241 1.838c2.071.606 4.31 2.784 4.979 4.836L29.374 62.62c.162.495.362.941.585 1.333-3.303 2.037-5.619 5.575-5.908 9.735-.475 6.848 4.709 12.808 11.56 13.282 6.826.476 12.761-4.675 13.275-11.486.36-.021.733-.077 1.124-.204l39.526-12.809a3.944 3.944 0 0 0 2.531-4.946zm-55.965 22.39a5.384 5.384 0 0 1-4.994-5.739 5.384 5.384 0 0 1 5.738-4.994 5.383 5.383 0 0 1 4.992 5.739 5.384 5.384 0 0 1-5.736 4.994z"></path><path d="M43.312 57.67a3.933 3.933 0 0 0 4.938 2.527l31.949-10.299a3.934 3.934 0 0 0 2.53-4.939l-8.387-26.055a3.917 3.917 0 0 0-4.937-2.517l-6.71 2.194a3.954 3.954 0 0 0-2.521 4.954l.893 2.756a3.927 3.927 0 0 1-2.525 4.936l-4.064 1.307a3.948 3.948 0 0 1-4.944-2.533l-.893-2.758a3.957 3.957 0 0 0-4.947-2.542l-6.237 1.986a3.919 3.919 0 0 0-2.537 4.926l8.392 26.057z"></path><path d="M51.932 27.086a2.59 2.59 0 0 0 3.284 1.664l.328-.107a2.656 2.656 0 0 0 1.68-3.317l-.674-2.099a2.59 2.59 0 0 0-3.284-1.666l-.327.109a2.658 2.658 0 0 0-1.683 3.316l.676 2.1z"></path></g><!----></svg>